# xmcd
#
# Track frame offsets:
#	150
#	21236
#	40183
#	60216
#	79893
#	99225
#	111010
#
# Disc length: 1715 seconds
#
# Revision: 0
# Processed by: cddbd v1.4PL0 Copyright (c) Steve Scherf et al.
# Submitted via: EasyCDDAExtractor 4.6.9.1
#
DISCID=4806b107
DTITLE=Брати Блюзу - Single
DYEAR=2000
DGENRE=Blues
TTITLE0=Interludia
TTITLE1=Sunday 19:25
TTITLE2=15,16,17,18,19,20
TTITLE3=Tosi-Bosi
TTITLE4=Authentic life
TTITLE5=Just a moment
TTITLE6=Script
EXTD=
EXTT0=
EXTT1=
EXTT2=
EXTT3=
EXTT4=
EXTT5=
EXTT6=
PLAYORDER=
